<svg width="30" height="30" viewBox="0 0 30 30" fill="none" xmlns="http://www.w3.org/2000/svg">
<path d="M6.99857 20.9962H22.6513C23.133 20.9963 23.6077 20.8802 24.0351 20.658C24.4625 20.4358 24.8301 20.1138 25.1068 19.7195C25.3834 19.3251 25.561 18.8699 25.6246 18.3924C25.6881 17.9149 25.6357 17.4291 25.4717 16.9761L22.6203 9.09273C22.1333 7.3408 21.0859 5.7966 19.6382 4.69632C18.1906 3.59603 16.4223 3.00021 14.604 3C12.7111 2.99997 10.8748 3.64545 9.39828 4.82987C7.92176 6.0143 6.89329 7.66683 6.48268 9.51464L4.13317 17.1131C3.99484 17.5617 3.96374 18.0365 4.04238 18.4993C4.12102 18.9621 4.30719 19.4 4.58593 19.7777C4.86467 20.1555 5.22818 20.4625 5.64722 20.6742C6.06626 20.8858 6.52912 20.9961 6.99857 20.9962Z" fill="white"/>
<path d="M10.0299 22.9961C10.2594 24.1261 10.8725 25.1421 11.7653 25.8719C12.6581 26.6016 13.7758 27.0003 14.9289 27.0003C16.082 27.0003 17.1997 26.6016 18.0925 25.8719C18.9853 25.1421 19.5984 24.1261 19.8279 22.9961H10.0299Z" fill="white"/>
</svg>
