<svg width="16" height="16" viewBox="0 0 16 16" fill="none" xmlns="http://www.w3.org/2000/svg">
<g clip-path="url(#clip0_1_4411)">
<path d="M1.21448 3L14.7855 3C15.0257 3.00005 15.2605 3.07132 15.4603 3.2048C15.66 3.33828 15.8156 3.52798 15.9075 3.74991C15.9995 3.97185 16.0235 4.21605 15.9767 4.45165C15.9298 4.68725 15.8142 4.90367 15.6443 5.07356L8.85882 11.8591C8.63102 12.0868 8.3221 12.2147 8 12.2147C7.67789 12.2147 7.36898 12.0868 7.14118 11.8591L0.355659 5.07356C0.185827 4.90367 0.0701764 4.68725 0.023327 4.45165C-0.0235224 4.21605 0.000533333 3.97185 0.0924526 3.74991C0.184372 3.52798 0.340028 3.33828 0.539742 3.2048C0.739457 3.07132 0.974264 3.00005 1.21448 3Z" fill="#AAAAAA"/>
</g>
<defs>
<clipPath id="clip0_1_4411">
<rect width="16" height="16" fill="white"/>
</clipPath>
</defs>
</svg>
