<svg width="16" height="16" viewBox="0 0 16 16" fill="none" xmlns="http://www.w3.org/2000/svg">
<g clip-path="url(#clip0_19_1264)">
<path d="M14.3333 1.33333H12V0H11.3333V1.33333H4.66667V0H4V1.33333H1.66667C0.748 1.33333 0 2.08133 0 3V16H16V3C16 2.08133 15.252 1.33333 14.3333 1.33333ZM1.66667 2H14.3333C14.8847 2 15.3333 2.44867 15.3333 3V5.33333H0.666667V3C0.666667 2.44867 1.11533 2 1.66667 2ZM0.666667 15.3333V6H15.3333V15.3333H0.666667ZM5.33333 10H10.6667V10.6667H5.33333V10Z" fill="#AAAAAA"/>
</g>
<defs>
<clipPath id="clip0_19_1264">
<rect width="16" height="16" fill="white"/>
</clipPath>
</defs>
</svg>
