<svg width="20" height="12" viewBox="0 0 20 12" fill="none" xmlns="http://www.w3.org/2000/svg">
<path d="M9.64062 5.8125C9.64844 9.32031 7.65625 11.625 4.82812 11.625C1.97656 11.625 0 9.32031 0 5.8125C0 2.30469 1.98438 0 4.82812 0C7.65625 0 9.64844 2.29688 9.64062 5.8125ZM0.796875 5.8125C0.796875 8.90625 2.46094 10.8516 4.82812 10.8438C7.16406 10.8516 8.85156 8.91406 8.84375 5.8125C8.84375 2.71094 7.16406 0.773438 4.82812 0.765625C2.48438 0.773438 0.796875 2.69531 0.796875 5.8125Z" fill="#AAAAAA"/>
<path d="M11.9688 11.4688V0.15625H12.7812V6.5625H12.875L18.6875 0.15625H19.75L14.875 5.46875L19.7188 11.4688H18.7188L14.3594 6.04688L12.7812 7.79688V11.4688H11.9688Z" fill="#AAAAAA"/>
</svg>
