<svg width="16" height="16" viewBox="0 0 16 16" fill="none" xmlns="http://www.w3.org/2000/svg">
<g clip-path="url(#clip0_252_18)">
<path d="M15.4914 0.508096C14.8374 -0.146571 13.6954 -0.147238 13.038 0.508096L5.60202 7.9641L1.72535 8.89543L0.0720215 15.9474L7.12336 14.2941L8.07269 10.3981L15.4914 2.9601C16.1674 2.2841 16.1674 1.1841 15.4914 0.507429V0.508096ZM6.57269 13.7388L1.58335 14.9081L4.46336 12.0274L3.99202 11.5561L1.11069 14.4374L2.28069 9.44743L5.44669 8.68743L7.34269 10.5834L6.57269 13.7388ZM15.0194 2.48943L7.61602 9.91343L6.10602 8.40343L13.5107 0.979429C13.9274 0.564096 14.604 0.563429 15.0207 0.979429C15.4367 1.3961 15.4367 2.07343 15.0207 2.48943H15.0194Z" fill="#AAAAAA"/>
</g>
<defs>
<clipPath id="clip0_252_18">
<rect width="16" height="16" fill="white"/>
</clipPath>
</defs>
</svg>
