<svg width="18" height="18" viewBox="0 0 18 18" fill="none" xmlns="http://www.w3.org/2000/svg">
<g clip-path="url(#clip0_506_2)">
<path d="M4.02878 17.6355C3.83157 17.6355 3.63574 17.574 3.4686 17.4532C3.15727 17.2275 3.01183 16.8397 3.09657 16.4655L4.25456 11.3645L0.327394 7.9205C0.0387204 7.66849 -0.0715577 7.2694 0.0469604 6.90424C0.165478 6.53975 0.487935 6.28171 0.86972 6.24641L6.06584 5.77467L8.1202 0.967071C8.27167 0.613852 8.61665 0.385742 8.99995 0.385742C9.38324 0.385742 9.72822 0.613852 9.8797 0.966247L11.9341 5.77467L17.1294 6.24641C17.512 6.28088 17.8344 6.53975 17.9529 6.90424C18.0715 7.26872 17.9619 7.66849 17.6732 7.9205L13.746 11.3638L14.904 16.4646C14.9889 16.8397 14.8433 17.2275 14.5321 17.4525C14.2216 17.6774 13.8076 17.6947 13.4806 17.4982L8.99995 14.8206L4.51933 17.4997C4.36786 17.5897 4.19907 17.6355 4.02878 17.6355ZM8.99995 13.6672C9.17024 13.6672 9.33889 13.7129 9.4905 13.8029L13.7191 16.332L12.6262 11.5175C12.5482 11.1749 12.6645 10.8171 12.9293 10.5853L16.6374 7.33326L11.7315 6.88776C11.3783 6.85548 11.0745 6.63342 10.9365 6.30794L8.99995 1.77102L7.06109 6.30862C6.92458 6.6319 6.6208 6.85397 6.2684 6.88624L1.36178 7.33175L5.06976 10.5838C5.33536 10.8163 5.45155 11.1734 5.37286 11.5168L4.28079 16.3312L8.5094 13.8029C8.66087 13.7129 8.82966 13.6672 8.99995 13.6672ZM6.02615 5.86765C6.02615 5.86765 6.02615 5.86847 6.02532 5.86916L6.02615 5.86765ZM11.9722 5.86545L11.9731 5.86696C11.9731 5.86614 11.9731 5.86614 11.9722 5.86545Z" fill="#EDEDEF"/>
</g>
<defs>
<clipPath id="clip0_506_2">
<rect width="18" height="18" fill="white"/>
</clipPath>
</defs>
</svg>
