<svg width="76" height="100" viewBox="0 0 76 100" fill="none" xmlns="http://www.w3.org/2000/svg">
<path d="M39.2749 71.752L39.6293 72.1048L39.9836 71.752L44.8566 66.9006L45.211 66.5478L44.8566 66.195L22.9161 44.3516C21.2821 42.7249 20.1295 40.9642 19.4443 39.0701C18.7705 37.1794 18.5112 35.263 18.6634 33.3165C18.8478 31.364 19.4074 29.4285 20.3483 27.5082C21.3209 25.5878 22.627 23.8092 24.271 22.1725C25.9152 20.5356 27.6936 19.2434 29.606 18.2912C31.5357 17.3539 33.472 16.8048 35.417 16.637C37.3889 16.4697 39.3219 16.7203 41.2207 17.3911L41.2231 17.3919C43.1404 18.0585 44.9157 19.1977 46.5488 20.8236L68.4894 42.667L68.8437 43.0197L69.1981 42.667L74.0711 37.8155L74.4255 37.4627L74.0711 37.11L52.1305 15.2666C49.7235 12.8702 47.064 11.1395 44.152 10.0865C41.2681 9.02221 38.323 8.57754 35.3207 8.75526L35.3204 8.75528C32.3523 8.9329 29.4299 9.69986 26.5559 11.0501C23.6949 12.3858 21.0727 14.2427 18.6893 16.6155C16.2901 19.004 14.4093 21.6302 13.0518 24.494C11.6954 27.3555 10.925 30.2651 10.7465 33.2203L10.7464 33.2232C10.5841 36.1964 11.039 39.1203 12.1081 41.9906C13.1817 44.8734 14.9277 47.5127 17.3343 49.9086L39.2749 71.752Z" fill="#92B9DC" stroke="#92B9DC"/>
<path d="M36.7248 28.248L36.3704 27.8952L36.0161 28.248L31.1431 33.0994L30.7887 33.4522L31.1431 33.805L53.0836 55.6484C54.7176 57.2751 55.8702 59.0358 56.5554 60.9299C57.2291 62.8206 57.4885 64.737 57.3363 66.6835C57.1519 68.636 56.5923 70.5715 55.6514 72.4918C54.6788 74.4122 53.3727 76.1908 51.7287 77.8275C50.0845 79.4644 48.306 80.7566 46.3937 81.7088C44.464 82.6461 42.5277 83.1952 40.5827 83.363C38.6108 83.5303 36.6778 83.2797 34.779 82.6089L34.7766 82.6081C32.8593 81.9415 31.084 80.8023 29.4509 79.1764L7.51028 57.3331L7.15594 56.9803L6.8016 57.3331L1.92856 62.1845L1.57422 62.5373L1.92856 62.89L23.8691 84.7334C26.2762 87.1298 28.9357 88.8605 31.8477 89.9135C34.7316 90.9778 37.6767 91.4225 40.6789 91.2447L40.6793 91.2447C43.6474 91.0671 46.5698 90.3001 49.4438 88.9499C52.3048 87.6142 54.927 85.7573 57.3104 83.3845C59.7096 80.996 61.5904 78.3698 62.9479 75.506C64.3043 72.6445 65.0747 69.7349 65.2532 66.7797L65.2533 66.7768C65.4156 63.8035 64.9607 60.8797 63.8916 58.0093C62.818 55.1266 61.072 52.4873 58.6654 50.0914L36.7248 28.248Z" fill="#1A5D9B" stroke="#1A5D9B"/>
</svg>
