<svg width="16" height="16" viewBox="0 0 16 16" fill="none" xmlns="http://www.w3.org/2000/svg">
<g clip-path="url(#clip0_11_1921)">
<path d="M8.014 8C10.22 8 12.014 6.206 12.014 4C12.014 1.794 10.22 0 8.014 0C5.808 0 4.014 1.794 4.014 4C4.014 6.206 5.808 8 8.014 8ZM8.014 0.666667C9.852 0.666667 11.3473 2.162 11.3473 4C11.3473 5.838 9.852 7.33333 8.014 7.33333C6.176 7.33333 4.68067 5.838 4.68067 4C4.68067 2.162 6.17667 0.666667 8.014 0.666667ZM11 9.33333H5C3.346 9.33333 2 10.6793 2 12.3333V16H2.66667V12.3333C2.66667 11.0467 3.71333 10 5 10H5.33333V12.0427C4.75267 12.1867 4.31933 12.7087 4.31933 13.3333C4.31933 14.0687 4.91733 14.6667 5.65267 14.6667C6.388 14.6667 6.986 14.0687 6.986 13.3333C6.986 12.7193 6.566 12.206 6 12.052V10H10V12.3673C9.24 12.522 8.66667 13.1953 8.66667 14V16H9.33333V14C9.33333 13.4487 9.782 13 10.3333 13C10.8847 13 11.3333 13.4487 11.3333 14V16H12V14C12 13.1947 11.4267 12.522 10.6667 12.3673V10H11C12.2867 10 13.3333 11.0467 13.3333 12.3333V16H14V12.3333C14 10.6793 12.654 9.33333 11 9.33333ZM6.31933 13.3333C6.31933 13.7013 6.02067 14 5.65267 14C5.28467 14 4.986 13.7013 4.986 13.3333C4.986 12.9653 5.28467 12.6667 5.65267 12.6667C6.02067 12.6667 6.31933 12.9653 6.31933 13.3333Z" fill="#AAAAAA"/>
</g>
<defs>
<clipPath id="clip0_11_1921">
<rect width="16" height="16" fill="white"/>
</clipPath>
</defs>
</svg>
