<svg width="28" height="28" viewBox="0 0 28 28" fill="none" xmlns="http://www.w3.org/2000/svg">
<path d="M20.4167 3H7.58333C5.05608 3 3 5.05608 3 7.58333V20.4167C3 22.9439 5.05608 25 7.58333 25H20.4167C22.9439 25 25 22.9439 25 20.4167V7.58333C25 5.05608 22.9439 3 20.4167 3ZM17.6667 14.9167H14.9167V17.6667C14.9167 18.1736 14.506 18.5833 14 18.5833C13.494 18.5833 13.0833 18.1736 13.0833 17.6667V14.9167H10.3333C9.82733 14.9167 9.41667 14.5069 9.41667 14C9.41667 13.4931 9.82733 13.0833 10.3333 13.0833H13.0833V10.3333C13.0833 9.82642 13.494 9.41667 14 9.41667C14.506 9.41667 14.9167 9.82642 14.9167 10.3333V13.0833H17.6667C18.1727 13.0833 18.5833 13.4931 18.5833 14C18.5833 14.5069 18.1727 14.9167 17.6667 14.9167Z" fill="#1A5D9B"/>
</svg>
