<svg width="20" height="20" viewBox="0 0 20 20" fill="none" xmlns="http://www.w3.org/2000/svg">
<path d="M19.875 3.25C19.875 3.52596 19.651 3.75 19.375 3.75H6.875C6.59904 3.75 6.375 3.52596 6.375 3.25C6.375 2.97404 6.59904 2.75 6.875 2.75H19.375C19.651 2.75 19.875 2.97404 19.875 3.25ZM2.375 3.25C2.375 3.87096 1.87096 4.375 1.25 4.375C0.629036 4.375 0.125 3.87096 0.125 3.25C0.125 2.62904 0.629036 2.125 1.25 2.125C1.87096 2.125 2.375 2.62904 2.375 3.25ZM19.875 10.125C19.875 10.401 19.651 10.625 19.375 10.625H6.875C6.59904 10.625 6.375 10.401 6.375 10.125C6.375 9.84904 6.59904 9.625 6.875 9.625H19.375C19.651 9.625 19.875 9.84904 19.875 10.125ZM2.375 10.125C2.375 10.746 1.87096 11.25 1.25 11.25C0.629035 11.25 0.125 10.746 0.125 10.125C0.125 9.50404 0.629035 9 1.25 9C1.87096 9 2.375 9.50404 2.375 10.125ZM19.875 17C19.875 17.276 19.651 17.5 19.375 17.5H6.875C6.59903 17.5 6.375 17.276 6.375 17C6.375 16.724 6.59904 16.5 6.875 16.5H19.375C19.651 16.5 19.875 16.724 19.875 17ZM2.375 17C2.375 17.621 1.87096 18.125 1.25 18.125C0.629035 18.125 0.125 17.621 0.125 17C0.125 16.379 0.629036 15.875 1.25 15.875C1.87096 15.875 2.375 16.379 2.375 17Z" fill="#AAAAAA" stroke="white" stroke-width="0.25"/>
</svg>
