<svg width="28" height="28" viewBox="0 0 28 28" fill="none" xmlns="http://www.w3.org/2000/svg">
<path d="M27.875 4.75C27.875 5.16396 27.539 5.5 27.125 5.5H9.625C9.21104 5.5 8.875 5.16396 8.875 4.75C8.875 4.33604 9.21104 4 9.625 4H27.125C27.539 4 27.875 4.33604 27.875 4.75ZM3.375 4.75C3.375 5.64696 2.64696 6.375 1.75 6.375C0.853036 6.375 0.125 5.64696 0.125 4.75C0.125 3.85304 0.853036 3.125 1.75 3.125C2.64696 3.125 3.375 3.85304 3.375 4.75ZM27.875 14.375C27.875 14.789 27.539 15.125 27.125 15.125H9.625C9.21104 15.125 8.875 14.789 8.875 14.375C8.875 13.961 9.21104 13.625 9.625 13.625H27.125C27.539 13.625 27.875 13.961 27.875 14.375ZM3.375 14.375C3.375 15.272 2.64696 16 1.75 16C0.853035 16 0.125 15.272 0.125 14.375C0.125 13.478 0.853035 12.75 1.75 12.75C2.64696 12.75 3.375 13.478 3.375 14.375ZM27.875 24C27.875 24.414 27.539 24.75 27.125 24.75H9.625C9.21104 24.75 8.875 24.414 8.875 24C8.875 23.586 9.21104 23.25 9.625 23.25H27.125C27.539 23.25 27.875 23.586 27.875 24ZM3.375 24C3.375 24.897 2.64696 25.625 1.75 25.625C0.853035 25.625 0.125 24.897 0.125 24C0.125 23.103 0.853036 22.375 1.75 22.375C2.64696 22.375 3.375 23.103 3.375 24Z" fill="#1A5D9B" stroke="white" stroke-width="0.25"/>
</svg>
