<svg width="28" height="28" viewBox="0 0 28 28" fill="none" xmlns="http://www.w3.org/2000/svg">
<path d="M28.0012 27.1541L20.3047 19.4635C22.1795 17.3943 23.3333 14.6606 23.3333 11.6564C23.3333 5.2296 18.0997 0 11.6667 0C5.23367 0 0 5.2296 0 11.6576C0 18.0856 5.23367 23.3152 11.6667 23.3152C14.6732 23.3152 17.409 22.1623 19.4798 20.2889L27.1763 27.9794L28.0012 27.1541ZM1.16667 11.6576C1.16667 5.87194 5.8765 1.16576 11.6667 1.16576C17.4568 1.16576 22.1667 5.87194 22.1667 11.6576C22.1667 17.4433 17.4568 22.1495 11.6667 22.1495C5.8765 22.1495 1.16667 17.4433 1.16667 11.6576Z" fill="#1A5D9B"/>
</svg>
