<svg width="28" height="28" viewBox="0 0 28 28" fill="none" xmlns="http://www.w3.org/2000/svg">
<g clip-path="url(#clip0_1056_1871)">
<path d="M8.11667 11.6667V11.7167H8.16667H25.0833C26.6645 11.7167 27.95 13.0033 27.95 14.5833V27.95H0.05V14.5833C0.05 13.0033 1.33546 11.7167 2.91667 11.7167H7H7.05V11.6667V7V6.95H7H0.05V2.91667C0.05 1.3366 1.33546 0.05 2.91667 0.05H12.25C13.8312 0.05 15.1167 1.3366 15.1167 2.91667V6.95H8.16667H8.11667V7V11.6667ZM14 5.88333H14.05V5.83333V2.91667C14.05 1.92422 13.2424 1.11667 12.25 1.11667H2.91667C1.92422 1.11667 1.11667 1.92422 1.11667 2.91667V5.83333V5.88333H1.16667H14ZM26.8333 22.2167H26.8833V22.1667V14.5833C26.8833 13.5909 26.0758 12.7833 25.0833 12.7833H2.91667C1.92422 12.7833 1.11667 13.5909 1.11667 14.5833V22.1667V22.2167H1.16667H26.8333ZM1.11667 26.8333V26.8833H1.16667H26.8333H26.8833V26.8333V23.3333V23.2833H26.8333H1.16667H1.11667V23.3333V26.8333ZM10.55 17.5C10.55 16.8836 11.0503 16.3833 11.6667 16.3833C12.2831 16.3833 12.7833 16.8836 12.7833 17.5C12.7833 18.1164 12.2831 18.6167 11.6667 18.6167C11.0503 18.6167 10.55 18.1164 10.55 17.5ZM5.88333 17.5C5.88333 16.8836 6.38361 16.3833 7 16.3833C7.61639 16.3833 8.11667 16.8836 8.11667 17.5C8.11667 18.1164 7.61639 18.6167 7 18.6167C6.38361 18.6167 5.88333 18.1164 5.88333 17.5ZM15.2167 17.5C15.2167 16.8836 15.7169 16.3833 16.3333 16.3833C16.9497 16.3833 17.45 16.8836 17.45 17.5C17.45 18.1164 16.9497 18.6167 16.3333 18.6167C15.7169 18.6167 15.2167 18.1164 15.2167 17.5ZM19.8833 17.5C19.8833 16.8836 20.3836 16.3833 21 16.3833C21.6164 16.3833 22.1167 16.8836 22.1167 17.5C22.1167 18.1164 21.6164 18.6167 21 18.6167C20.3836 18.6167 19.8833 18.1164 19.8833 17.5Z" fill="#1A5D9B" stroke="white" stroke-width="0.1"/>
</g>
<defs>
<clipPath id="clip0_1056_1871">
<rect width="28" height="28" fill="white"/>
</clipPath>
</defs>
</svg>
