<svg width="17" height="16" viewBox="0 0 17 16" fill="none" xmlns="http://www.w3.org/2000/svg">
<path d="M12.3707 4.6875V4V0.6875H4.40825V4V4.6875H3.72022H1.07129V13.3125H3.72022H4.40825V14V15.3125H12.3738V14V13.3125H13.0618H15.7077V4.6875H13.0587H12.3707ZM5.03374 4V2V1.3125H5.72177H11.0603H11.7483V2V4V4.6875H11.0603H5.72177H5.03374V4ZM11.7452 10.6656V14V14.6875H11.0572H5.72177H5.03374V14V10.6656V9.97812H5.72177H11.0603H11.7483V10.6656H11.7452ZM15.0822 5.3125V6V12V12.6875H14.3941H13.0587H12.3707V12V9.35312H4.40825V12V12.6875H3.72022H2.38481H1.69677V12V6V5.3125H2.38481H14.3941H15.0822Z" fill="#AAAAAA"/>
</svg>
