<svg width="16" height="16" viewBox="0 0 16 16" fill="none" xmlns="http://www.w3.org/2000/svg">
<g clip-path="url(#clip0_253_32)">
<path d="M14.3333 8H12.3333C11.782 8 11.3333 8.44867 11.3333 9C11.3333 9.91933 10.586 10.6667 9.66667 10.6667H6.33333C5.414 10.6667 4.66667 9.91933 4.66667 9C4.66667 8.44867 4.218 8 3.66667 8H1.66667C0.747333 8 0 8.74733 0 9.66667V13C0 14.654 1.346 16 3 16H13C14.654 16 16 14.654 16 13V9.66667C16 8.74733 15.2527 8 14.3333 8ZM15.3333 13C15.3333 14.2867 14.2867 15.3333 13 15.3333H3C1.71333 15.3333 0.666667 14.2867 0.666667 13V9.66667C0.666667 9.11533 1.11533 8.66667 1.66667 8.66667H3.66667C3.85 8.66667 4 8.81667 4 9C4 10.2867 5.04667 11.3333 6.33333 11.3333H9.66667C10.9533 11.3333 12 10.2867 12 9C12 8.81667 12.15 8.66667 12.3333 8.66667H14.3333C14.8847 8.66667 15.3333 9.11533 15.3333 9.66667V13ZM5.09733 4.84533C4.96733 4.71533 4.96733 4.504 5.09733 4.374C5.22733 4.244 5.43867 4.244 5.56867 4.374L7.666 6.47133V0.333333C7.666 0.149333 7.81533 0 7.99933 0C8.18333 0 8.33267 0.149333 8.33267 0.333333V6.47133L10.43 4.374C10.56 4.244 10.7713 4.244 10.9013 4.374C11.0313 4.504 11.0313 4.71533 10.9013 4.84533L8.706 7.04067C8.53467 7.212 8.31333 7.29467 8.08933 7.31533C8.06 7.324 8.03133 7.33333 7.99933 7.33333C7.96733 7.33333 7.93867 7.32333 7.90933 7.31533C7.68467 7.29467 7.464 7.212 7.29267 7.04067L5.09733 4.84533Z" fill="#AAAAAA"/>
</g>
<defs>
<clipPath id="clip0_253_32">
<rect width="16" height="16" fill="white"/>
</clipPath>
</defs>
</svg>
