<svg width="16" height="16" viewBox="0 0 16 16" fill="none" xmlns="http://www.w3.org/2000/svg">
<g clip-path="url(#clip0_252_6)">
<path d="M11.6667 7.33333C9.27733 7.33333 7.33333 9.27733 7.33333 11.6667C7.33333 14.056 9.27733 16 11.6667 16C14.056 16 16 14.056 16 11.6667C16 9.27733 14.056 7.33333 11.6667 7.33333ZM11.6667 15.3333C9.64533 15.3333 8 13.6887 8 11.6667C8 9.64467 9.64533 8 11.6667 8C13.688 8 15.3333 9.64467 15.3333 11.6667C15.3333 13.6887 13.688 15.3333 11.6667 15.3333ZM12 11.5287L13.236 12.7647L12.7647 13.236L11.334 11.8053V9.66733H12.0007V11.5293L12 11.5287ZM14.3333 1.33333H12V0H11.3333V1.33333H4.66667V0H4V1.33333H1.66667C0.748 1.33333 0 2.08133 0 3V16H8.01867C7.77733 15.7967 7.55467 15.5733 7.35 15.3333H0.666667V6H15.3333V7.35067C15.5733 7.55467 15.7967 7.778 16 8.01933V3C16 2.08133 15.2527 1.33333 14.3333 1.33333ZM0.666667 5.33333V3C0.666667 2.44867 1.11533 2 1.66667 2H14.3333C14.8847 2 15.3333 2.44867 15.3333 3V5.33333H0.666667Z" fill="#AAAAAA"/>
</g>
<defs>
<clipPath id="clip0_252_6">
<rect width="16" height="16" fill="white"/>
</clipPath>
</defs>
</svg>
