<svg width="16" height="16" viewBox="0 0 16 16" fill="none" xmlns="http://www.w3.org/2000/svg">
<path d="M9.16927 9.22727L9.0632 9.33333L9.16927 9.4394L10.6979 10.9681C10.9 11.1702 10.9 11.4965 10.6979 11.6986C10.5971 11.7994 10.4651 11.85 10.3327 11.85C10.2003 11.85 10.0682 11.7994 9.9674 11.6986L8.43873 10.1699L8.33267 10.0639L8.2266 10.1699L6.69793 11.6986C6.59713 11.7994 6.46508 11.85 6.33267 11.85C6.20025 11.85 6.0682 11.7994 5.9674 11.6986C5.76531 11.4965 5.76531 11.1702 5.9674 10.9681L7.49607 9.4394L7.60213 9.33333L7.49607 9.22727L5.9674 7.6986C5.76531 7.49651 5.76531 7.17015 5.9674 6.96807C6.16949 6.76598 6.49585 6.76598 6.69793 6.96807L8.2266 8.49673L8.33267 8.6028L8.43873 8.49673L9.9674 6.96807C10.1695 6.76598 10.4958 6.76598 10.6979 6.96807C10.9 7.17015 10.9 7.49651 10.6979 7.6986L9.16927 9.22727ZM14.4093 3.85H14.2729L14.26 3.98586L13.4093 12.9672C13.2533 14.6108 11.8913 15.85 10.24 15.85H6.422C4.77325 15.85 3.41124 14.6134 3.25331 12.9716L2.38931 3.98564L2.37627 3.85H2.24H1.66667C1.38141 3.85 1.15 3.61906 1.15 3.33333C1.15 3.04761 1.38141 2.81667 1.66667 2.81667H4.40067H4.52315L4.54764 2.69665C4.84371 1.24561 6.1302 0.15 7.66667 0.15H9C10.5365 0.15 11.8236 1.24564 12.119 2.69659L12.1435 2.81667H12.266H15C15.2851 2.81667 15.516 3.04741 15.516 3.33333C15.516 3.61906 15.2846 3.85 14.9993 3.85H14.4093ZM5.6393 2.61651L5.56828 2.81667H5.78067H10.8847H11.097L11.026 2.61651C10.7302 1.78277 9.93438 1.18333 8.99933 1.18333H7.666C6.73095 1.18333 5.93512 1.78277 5.6393 2.61651ZM13.2193 4.01414L13.2349 3.85H13.07H3.57933H3.41421L3.43002 4.01436L4.28202 12.8723C4.38805 13.9806 5.30876 14.8167 6.422 14.8167H10.24C11.3547 14.8167 12.2754 13.9791 12.3807 12.8688L12.3807 12.8688L13.2193 4.01414Z" fill="#AAAAAA" stroke="#F5F7FA" stroke-width="0.3"/>
</svg>
