<svg width="16" height="16" viewBox="0 0 16 16" fill="none" xmlns="http://www.w3.org/2000/svg">
<g clip-path="url(#clip0_106_1920)">
<path d="M2.51667 2.038V2.37307L2.76658 2.14988C4.19216 0.876739 6.05206 0.15 8 0.15C12.3285 0.15 15.85 3.67151 15.85 8C15.85 12.3285 12.3285 15.85 8 15.85C3.72162 15.85 0.231643 12.4096 0.151412 8.15H1.18496C1.26501 11.8399 4.29128 14.8167 8 14.8167C11.7588 14.8167 14.8167 11.7588 14.8167 8C14.8167 4.24116 11.7588 1.18333 8 1.18333C6.15726 1.18333 4.40551 1.93252 3.13298 3.22823L2.88244 3.48333H3.24H5.85V4.51667H2.66667C2.01418 4.51667 1.48333 3.98582 1.48333 3.33333V0.15H2.51667V2.038Z" fill="#F87F7F" stroke="#F5F7FA" stroke-width="0.3"/>
</g>
<defs>
<clipPath id="clip0_106_1920">
<rect width="16" height="16" fill="white"/>
</clipPath>
</defs>
</svg>
