<svg width="16" height="16" viewBox="0 0 16 16" fill="none" xmlns="http://www.w3.org/2000/svg">
<g clip-path="url(#clip0_17_342)">
<path d="M8.51863 8.00017L15.9073 0.54597C16.0481 0.403979 16.0241 0.193992 15.8537 0.0766662C15.6849 -0.0406598 15.433 -0.0213276 15.2906 0.12133L7.9995 7.47687L0.70922 0.121997C0.566838 -0.0213276 0.31487 -0.0399931 0.146091 0.0773328C-0.0242874 0.194659 -0.0482843 0.404646 0.0924979 0.546637L7.48036 8.00017L0.0916981 15.4544C-0.0490841 15.5964 -0.0250872 15.8063 0.145291 15.9237C0.31487 16.0403 0.566838 16.0217 0.70842 15.879L7.9995 8.52347L15.2898 15.8783C15.4314 16.021 15.6841 16.0397 15.8529 15.923C16.0233 15.8057 16.0473 15.5957 15.9065 15.4537L8.51863 8.00017Z" fill="#AAAAAA"/>
</g>
<defs>
<clipPath id="clip0_17_342">
<rect width="16" height="16" fill="white"/>
</clipPath>
</defs>
</svg>
