<svg xmlns="http://www.w3.org/2000/svg" version="1.1" xmlns:xlink="http://www.w3.org/1999/xlink" xmlns:svgjs="http://svgjs.com/svgjs" width="512" height="512" x="0" y="0" viewBox="0 0 512 512" style="enable-background:new 0 0 512 512" xml:space="preserve" class=""><g><path d="M342.635 169.365c-12.493-12.501-32.754-12.507-45.255-.014l-.015.014L256 210.752l-41.365-41.387c-12.501-12.501-32.769-12.501-45.269 0s-12.501 32.769 0 45.269L210.752 256l-41.387 41.365c-12.501 12.501-12.501 32.769 0 45.269 12.501 12.501 32.769 12.501 45.269 0L256 301.248l41.365 41.387c12.501 12.501 32.769 12.501 45.269 0 12.501-12.501 12.501-32.769 0-45.269L301.248 256l41.387-41.365c12.501-12.493 12.507-32.754.014-45.255l-.014-.015z" fill="#da3125" data-original="#000000" class=""></path><path d="M256 0C114.615 0 0 114.615 0 256s114.615 256 256 256 256-114.615 256-256C511.847 114.678 397.322.153 256 0zm0 448c-106.039 0-192-85.961-192-192S149.961 64 256 64s192 85.961 192 192c-.118 105.99-86.01 191.882-192 192z" fill="#da3125" data-original="#000000" class=""></path></g></svg>