<svg width="387" height="100" viewBox="0 0 387 100" fill="none" xmlns="http://www.w3.org/2000/svg">
<path d="M39.2749 71.752L39.6293 72.1048L39.9836 71.752L44.8566 66.9006L45.211 66.5478L44.8566 66.195L22.9161 44.3516C21.2821 42.7249 20.1295 40.9642 19.4443 39.0701C18.7705 37.1794 18.5112 35.263 18.6634 33.3165C18.8478 31.364 19.4074 29.4285 20.3483 27.5082C21.3209 25.5878 22.627 23.8092 24.271 22.1725C25.9152 20.5356 27.6936 19.2434 29.606 18.2912C31.5357 17.3539 33.472 16.8048 35.417 16.637C37.3889 16.4697 39.3219 16.7203 41.2207 17.3911L41.2231 17.3919C43.1404 18.0585 44.9157 19.1977 46.5488 20.8236L68.4894 42.667L68.8437 43.0197L69.1981 42.667L74.0711 37.8155L74.4255 37.4627L74.0711 37.11L52.1305 15.2666C49.7235 12.8702 47.064 11.1395 44.152 10.0865C41.2681 9.02221 38.323 8.57754 35.3207 8.75526L35.3204 8.75528C32.3523 8.9329 29.4299 9.69986 26.5559 11.0501C23.6949 12.3858 21.0727 14.2427 18.6893 16.6155C16.2901 19.004 14.4093 21.6302 13.0518 24.494C11.6954 27.3555 10.925 30.2651 10.7465 33.2203L10.7464 33.2232C10.5841 36.1964 11.039 39.1203 12.1081 41.9906C13.1817 44.8734 14.9277 47.5127 17.3343 49.9086L39.2749 71.752Z" fill="#92B9DC" stroke="#92B9DC"/>
<path d="M36.7248 28.248L36.3704 27.8952L36.0161 28.248L31.1431 33.0994L30.7887 33.4522L31.1431 33.805L53.0836 55.6484C54.7176 57.2751 55.8702 59.0358 56.5554 60.9299C57.2291 62.8206 57.4885 64.737 57.3363 66.6835C57.1519 68.636 56.5923 70.5715 55.6514 72.4918C54.6788 74.4122 53.3727 76.1908 51.7287 77.8275C50.0845 79.4644 48.306 80.7566 46.3937 81.7088C44.464 82.6461 42.5277 83.1952 40.5827 83.363C38.6108 83.5303 36.6778 83.2797 34.779 82.6089L34.7766 82.6081C32.8593 81.9415 31.084 80.8023 29.4509 79.1764L7.51028 57.3331L7.15594 56.9803L6.8016 57.3331L1.92856 62.1845L1.57422 62.5373L1.92856 62.89L23.8691 84.7334C26.2762 87.1298 28.9357 88.8605 31.8477 89.9135C34.7316 90.9778 37.6767 91.4225 40.6789 91.2447L40.6793 91.2447C43.6474 91.0671 46.5698 90.3001 49.4438 88.9499C52.3048 87.6142 54.927 85.7573 57.3104 83.3845C59.7096 80.996 61.5904 78.3698 62.9479 75.506C64.3043 72.6445 65.0747 69.7349 65.2532 66.7797L65.2533 66.7768C65.4156 63.8035 64.9607 60.8797 63.8916 58.0093C62.818 55.1266 61.072 52.4873 58.6654 50.0914L36.7248 28.248Z" fill="#1A5D9B" stroke="#1A5D9B"/>
<path d="M123.412 41H107.176C105.424 41 103.84 40.676 102.424 40.028C101.008 39.38 99.784 38.48 98.752 37.328C97.744 36.176 96.964 34.844 96.412 33.332C95.86 31.796 95.584 30.152 95.584 28.4C95.584 26.672 95.86 25.052 96.412 23.54C96.964 22.004 97.744 20.66 98.752 19.508C99.784 18.332 101.008 17.42 102.424 16.772C103.84 16.124 105.424 15.8 107.176 15.8H123.412V19.4H107.176C105.52 19.4 104.092 19.808 102.892 20.624C101.716 21.416 100.804 22.496 100.156 23.864C99.508 25.232 99.184 26.744 99.184 28.4C99.184 30.056 99.508 31.568 100.156 32.936C100.804 34.28 101.716 35.36 102.892 36.176C104.092 36.992 105.52 37.4 107.176 37.4H123.412V41ZM151.835 41H127.751V15.8H131.351V37.4H151.835V41ZM158.808 41H155.208V15.8H158.808V41ZM168.44 41H164.84V15.8H166.64C168.392 15.8 170.288 16.136 172.328 16.808C174.392 17.48 176.456 18.428 178.52 19.652C180.584 20.876 182.528 22.34 184.352 24.044C186.2 25.724 187.784 27.596 189.104 29.66V15.8H192.704V41H189.104C189.104 38.792 188.648 36.68 187.736 34.664C186.848 32.624 185.66 30.752 184.172 29.048C182.684 27.32 181.028 25.796 179.204 24.476C177.404 23.132 175.568 22.04 173.696 21.2C171.824 20.336 170.072 19.784 168.44 19.544V41ZM202.366 41H198.766V15.8H202.366V41ZM234.787 41H218.551C216.799 41 215.215 40.676 213.799 40.028C212.383 39.38 211.159 38.48 210.127 37.328C209.119 36.176 208.339 34.844 207.787 33.332C207.235 31.796 206.959 30.152 206.959 28.4C206.959 26.672 207.235 25.052 207.787 23.54C208.339 22.004 209.119 20.66 210.127 19.508C211.159 18.332 212.383 17.42 213.799 16.772C215.215 16.124 216.799 15.8 218.551 15.8H234.787V19.4H218.551C216.895 19.4 215.467 19.808 214.267 20.624C213.091 21.416 212.179 22.496 211.531 23.864C210.883 25.232 210.559 26.744 210.559 28.4C210.559 30.056 210.883 31.568 211.531 32.936C212.179 34.28 213.091 35.36 214.267 36.176C215.467 36.992 216.895 37.4 218.551 37.4H234.787V41Z" fill="#92B9DC"/>
<path d="M124.852 76.8C124.852 78.12 124.528 79.332 123.88 80.436C123.232 81.516 122.368 82.38 121.288 83.028C120.208 83.676 118.996 84 117.652 84H95.764V80.4H117.652C118.66 80.4 119.512 80.052 120.208 79.356C120.904 78.636 121.252 77.784 121.252 76.8C121.252 75.816 120.904 74.976 120.208 74.28C119.512 73.56 118.66 73.2 117.652 73.2H102.964C101.644 73.2 100.432 72.876 99.328 72.228C98.248 71.58 97.384 70.716 96.736 69.636C96.088 68.532 95.764 67.32 95.764 66C95.764 64.68 96.088 63.48 96.736 62.4C97.384 61.296 98.248 60.42 99.328 59.772C100.432 59.124 101.644 58.8 102.964 58.8H123.052V62.4H102.964C101.98 62.4 101.128 62.76 100.408 63.48C99.712 64.176 99.364 65.016 99.364 66C99.364 66.984 99.712 67.836 100.408 68.556C101.128 69.252 101.98 69.6 102.964 69.6H117.652C118.996 69.6 120.208 69.924 121.288 70.572C122.368 71.22 123.232 72.096 123.88 73.2C124.528 74.28 124.852 75.48 124.852 76.8ZM156.051 58.8L156.015 71.4C156.015 73.152 155.691 74.796 155.043 76.332C154.395 77.844 153.495 79.176 152.343 80.328C151.191 81.48 149.847 82.38 148.311 83.028C146.799 83.676 145.179 84 143.451 84H140.787C139.059 84 137.427 83.676 135.891 83.028C134.379 82.38 133.047 81.48 131.895 80.328C130.743 79.152 129.843 77.808 129.195 76.296C128.547 74.76 128.223 73.128 128.223 71.4V58.8H131.823V71.4C131.823 73.056 132.219 74.568 133.011 75.936C133.827 77.28 134.919 78.36 136.287 79.176C137.655 79.992 139.155 80.4 140.787 80.4H143.451C145.107 80.4 146.607 79.992 147.951 79.176C149.319 78.36 150.399 77.28 151.191 75.936C152.007 74.568 152.415 73.056 152.415 71.4V58.8H156.051ZM190.307 67.8C190.307 69.456 189.899 70.968 189.083 72.336C188.291 73.68 187.211 74.76 185.843 75.576C184.475 76.392 182.963 76.8 181.307 76.8H166.835V73.236H181.307C182.315 73.236 183.227 72.996 184.043 72.516C184.859 72.012 185.507 71.352 185.987 70.536C186.467 69.696 186.707 68.784 186.707 67.8C186.707 66.792 186.467 65.88 185.987 65.064C185.507 64.248 184.859 63.6 184.043 63.12C183.227 62.64 182.315 62.4 181.307 62.4H164.819V84H161.219V58.8H181.307C182.963 58.8 184.475 59.208 185.843 60.024C187.211 60.816 188.291 61.896 189.083 63.264C189.899 64.632 190.307 66.144 190.307 67.8ZM223.319 67.8C223.319 69.456 222.911 70.968 222.095 72.336C221.303 73.68 220.223 74.76 218.855 75.576C217.487 76.392 215.975 76.8 214.319 76.8H199.847V73.236H214.319C215.327 73.236 216.239 72.996 217.055 72.516C217.871 72.012 218.519 71.352 218.999 70.536C219.479 69.696 219.719 68.784 219.719 67.8C219.719 66.792 219.479 65.88 218.999 65.064C218.519 64.248 217.871 63.6 217.055 63.12C216.239 62.64 215.327 62.4 214.319 62.4H197.831V84H194.231V58.8H214.319C215.975 58.8 217.487 59.208 218.855 60.024C220.223 60.816 221.303 61.896 222.095 63.264C222.911 64.632 223.319 66.144 223.319 67.8ZM257.339 71.4C257.339 73.152 257.063 74.796 256.511 76.332C255.959 77.844 255.167 79.176 254.135 80.328C253.127 81.48 251.915 82.38 250.499 83.028C249.083 83.676 247.511 84 245.783 84H237.395C235.643 84 234.059 83.676 232.643 83.028C231.227 82.38 230.003 81.48 228.971 80.328C227.963 79.176 227.183 77.844 226.631 76.332C226.079 74.796 225.803 73.152 225.803 71.4C225.803 69.672 226.079 68.052 226.631 66.54C227.183 65.004 227.963 63.66 228.971 62.508C230.003 61.332 231.227 60.42 232.643 59.772C234.059 59.124 235.643 58.8 237.395 58.8H245.783C247.511 58.8 249.083 59.124 250.499 59.772C251.915 60.42 253.127 61.332 254.135 62.508C255.167 63.66 255.959 65.004 256.511 66.54C257.063 68.052 257.339 69.672 257.339 71.4ZM253.739 71.4C253.739 69.744 253.415 68.232 252.767 66.864C252.143 65.496 251.231 64.416 250.031 63.624C248.855 62.808 247.439 62.4 245.783 62.4H237.395C235.739 62.4 234.311 62.808 233.111 63.624C231.935 64.416 231.023 65.496 230.375 66.864C229.727 68.232 229.403 69.744 229.403 71.4C229.403 73.056 229.727 74.568 230.375 75.936C231.023 77.28 231.935 78.36 233.111 79.176C234.311 79.992 235.739 80.4 237.395 80.4H245.783C247.439 80.4 248.855 79.992 250.031 79.176C251.231 78.36 252.143 77.28 252.767 75.936C253.415 74.568 253.739 73.056 253.739 71.4ZM291.03 84H286.17L278.61 76.8H267.558V73.236H282.03C283.038 73.236 283.95 72.996 284.766 72.516C285.582 72.012 286.23 71.352 286.71 70.536C287.19 69.696 287.43 68.784 287.43 67.8C287.43 66.792 287.19 65.88 286.71 65.064C286.23 64.248 285.582 63.6 284.766 63.12C283.95 62.64 283.038 62.4 282.03 62.4H265.542V84H261.942V58.8H282.03C283.686 58.8 285.198 59.208 286.566 60.024C287.934 60.816 289.014 61.896 289.806 63.264C290.622 64.632 291.03 66.144 291.03 67.8C291.03 69.288 290.694 70.668 290.022 71.94C289.374 73.212 288.474 74.268 287.322 75.108C286.194 75.924 284.91 76.452 283.47 76.692L291.03 84ZM309.02 84H305.42V62.4H292.676V58.8H321.764V62.4H309.02V84ZM351.217 84H325.153V58.8H351.217V62.4H328.753V80.4H351.217V84ZM348.157 73.2H330.553V69.6H348.157V73.2ZM384.757 84H379.897L372.337 76.8H361.285V73.236H375.757C376.765 73.236 377.677 72.996 378.493 72.516C379.309 72.012 379.957 71.352 380.437 70.536C380.917 69.696 381.157 68.784 381.157 67.8C381.157 66.792 380.917 65.88 380.437 65.064C379.957 64.248 379.309 63.6 378.493 63.12C377.677 62.64 376.765 62.4 375.757 62.4H359.269V84H355.669V58.8H375.757C377.413 58.8 378.925 59.208 380.293 60.024C381.661 60.816 382.741 61.896 383.533 63.264C384.349 64.632 384.757 66.144 384.757 67.8C384.757 69.288 384.421 70.668 383.749 71.94C383.101 73.212 382.201 74.268 381.049 75.108C379.921 75.924 378.637 76.452 377.197 76.692L384.757 84Z" fill="#1A5D9B"/>
</svg>
