<svg width="28" height="28" viewBox="0 0 28 28" fill="none" xmlns="http://www.w3.org/2000/svg">
<path d="M6.53207 19.5965H21.1413C21.5909 19.5965 22.0339 19.4882 22.4328 19.2808C22.8317 19.0734 23.1748 18.7729 23.433 18.4048C23.6913 18.0368 23.857 17.6119 23.9163 17.1662C23.9756 16.7205 23.9267 16.2671 23.7737 15.8443L21.1124 8.48653C20.6578 6.8514 19.6802 5.41015 18.3291 4.38322C16.9779 3.35628 15.3276 2.80019 13.6305 2.79999C11.8638 2.79996 10.1499 3.40241 8.7718 4.50787C7.3937 5.61333 6.4338 7.1557 6.05057 8.88032L3.85769 15.9722C3.72858 16.3909 3.69956 16.834 3.77295 17.266C3.84635 17.698 4.02011 18.1067 4.28027 18.4592C4.54042 18.8118 4.8797 19.0983 5.2708 19.2959C5.66191 19.4934 6.09391 19.5964 6.53207 19.5965Z" fill="#1A5D9B"/>
<path d="M9.36133 21.4628C9.5755 22.5175 10.1477 23.4657 10.981 24.1468C11.8143 24.8279 12.8575 25.2 13.9337 25.2C15.0099 25.2 16.0531 24.8279 16.8864 24.1468C17.7197 23.4657 18.2919 22.5175 18.5061 21.4628H9.36133Z" fill="#1A5D9B"/>
</svg>
