<svg width="20" height="20" viewBox="0 0 20 20" fill="none" xmlns="http://www.w3.org/2000/svg">
<g clip-path="url(#clip0_294_6)">
<path d="M20.0008 19.3958L14.5033 13.9025C15.8425 12.4245 16.6667 10.4719 16.6667 8.32603C16.6667 3.73543 12.9283 0 8.33333 0C3.73833 0 0 3.73543 0 8.32686C0 12.9183 3.73833 16.6537 8.33333 16.6537C10.4808 16.6537 12.435 15.8302 13.9142 14.4921L19.4117 19.9853L20.0008 19.3958ZM0.833333 8.32686C0.833333 4.19424 4.1975 0.832686 8.33333 0.832686C12.4692 0.832686 15.8333 4.19424 15.8333 8.32686C15.8333 12.4595 12.4692 15.821 8.33333 15.821C4.1975 15.821 0.833333 12.4595 0.833333 8.32686Z" fill="#AAAAAA"/>
</g>
<defs>
<clipPath id="clip0_294_6">
<rect width="20" height="19.9845" fill="white"/>
</clipPath>
</defs>
</svg>
