<svg width="28" height="28" viewBox="0 0 28 28" fill="none" xmlns="http://www.w3.org/2000/svg">
<g clip-path="url(#clip0_1056_1868)">
<path d="M10.5 14C14.3605 14 17.5 10.8605 17.5 7C17.5 3.1395 14.3605 0 10.5 0C6.6395 0 3.5 3.1395 3.5 7C3.5 10.8605 6.6395 14 10.5 14ZM10.5 1.16667C13.7165 1.16667 16.3333 3.7835 16.3333 7C16.3333 10.2165 13.7165 12.8333 10.5 12.8333C7.2835 12.8333 4.66667 10.2165 4.66667 7C4.66667 3.7835 7.2835 1.16667 10.5 1.16667ZM14.8948 18.5967C13.552 17.8792 12.0318 17.5 10.5 17.5C5.35383 17.5 1.16667 21.6872 1.16667 26.8333V27.4167C1.16667 27.7387 0.905333 28 0.583333 28C0.261333 28 0 27.7387 0 27.4167V26.8333C0 21.0443 4.711 16.3333 10.5 16.3333C12.2243 16.3333 13.9335 16.7603 15.4455 17.5688C15.7302 17.7205 15.8363 18.074 15.6847 18.3587C15.533 18.6433 15.1795 18.7483 14.8948 18.5978V18.5967ZM27.1448 13.6873C26.0447 12.586 24.1208 12.586 23.0207 13.6873L14.0292 22.6788C13.258 23.45 12.8333 24.4755 12.8333 25.5663V27.4167C12.8333 27.7387 13.0947 28 13.4167 28H15.267C16.3578 28 17.3833 27.5753 18.1545 26.8042L27.146 17.8127C27.6967 17.262 28 16.5293 28 15.75C28 14.9707 27.6955 14.238 27.1448 13.6873ZM26.32 16.9867L17.3285 25.9782C16.7778 26.5288 16.0452 26.8322 15.2658 26.8322H13.9988V25.5652C13.9988 24.7858 14.3022 24.0543 14.8528 23.5025L23.8443 14.511C24.5047 13.8507 25.6585 13.8507 26.3188 14.511C26.649 14.8412 26.831 15.281 26.831 15.7488C26.831 16.2167 26.6502 16.6553 26.32 16.9867Z" fill="#1A5D9B"/>
</g>
<defs>
<clipPath id="clip0_1056_1868">
<rect width="28" height="28" fill="white"/>
</clipPath>
</defs>
</svg>
