<svg width="16" height="16" viewBox="0 0 16 16" fill="none" xmlns="http://www.w3.org/2000/svg">
<g clip-path="url(#clip0_618_769)">
<path d="M11.034 14.0001H11.0267C10.7607 13.9974 10.5327 13.8227 10.46 13.5667L7.978 2.89141L5.51933 12.2367C5.43667 12.4941 5.224 12.6561 4.97133 12.6661C4.71467 12.6701 4.49267 12.5307 4.39733 12.2974L3.32933 8.64474C3.19333 8.26674 2.81533 8.00007 2.394 8.00007H0.333333C0.149333 8.00007 0 7.85074 0 7.66674C0 7.48274 0.149333 7.33341 0.333333 7.33341H2.394C3.096 7.33341 3.72667 7.77807 3.96333 8.43874L4.94467 11.8027L7.41133 2.43007C7.498 2.16074 7.728 1.99141 7.994 2.00007C8.258 2.00474 8.48333 2.17874 8.556 2.43274L11.0333 13.0887L12.0767 8.57874C12.2747 7.84074 12.9367 7.33274 13.6893 7.33274H15.6667C15.8507 7.33274 16 7.48207 16 7.66607C16 7.85007 15.8507 7.99941 15.6667 7.99941H13.6893C13.2373 7.99941 12.8407 8.30407 12.724 8.74007L11.6087 13.5567C11.5247 13.8314 11.2967 14.0001 11.034 14.0001Z" fill="#AAAAAA"/>
</g>
<defs>
<clipPath id="clip0_618_769">
<rect width="16" height="16" fill="white"/>
</clipPath>
</defs>
</svg>
